<?xml version="1.0" encoding="utf-8"?>
<!-- Generator: Adobe Illustrator 21.0.0, SVG Export Plug-In . SVG Version: 6.00 Build 0)  -->
<svg version="1.1" id="图层_1" xmlns="http://www.w3.org/2000/svg" xmlns:xlink="http://www.w3.org/1999/xlink" x="0px" y="0px"
	 viewBox="0 0 283.5 85" style="enable-background:new 0 0 283.5 85;" xml:space="preserve">
<style type="text/css">
	.st0{fill:#efefef;}
	.st1{fill:#efefef;}
</style>
<g>
	<path class="st0" d="M56.7,68.4l6.5,0c0.2-0.4,0.3-0.7,0.2-1.1c0-0.7-0.1-1.3-0.4-2l-6.4,0c-0.1,0.4-0.2,0.7-0.2,1.1l6.9,0l0,0.9
		l-6.9,0C56.5,67.7,56.6,68.1,56.7,68.4z"/>
	<path class="st0" d="M32,15.7c-4-4-10.5-4.1-14.6-0.1c-4.1,4-4.2,10.5-0.2,14.5c4,4,10.5,4.1,14.6,0.1C35.9,26.2,36,19.7,32,15.7z"
		/>
	<path class="st0" d="M56.3,52.7l7.9,0c-0.1-0.4-0.2-0.7-0.4-1.1h-7.3C56.4,52,56.3,52.3,56.3,52.7z"/>
	<path class="st0" d="M64.2,53.6h-7.9c0.1,0.4,0.2,0.7,0.4,1.1h7.2C64.1,54.3,64.2,54,64.2,53.6z"/>
	<path class="st0" d="M75.9,7.9H63.1V42c0.4-0.6,0.8-1.1,0.9-1.7h1.9c-0.3,1.6-1.4,3-2.8,4.4v3.1c1.7,1.6,3,3.4,3,5.4
		c0,2.1-1.3,3.8-3,5.3v3.4c1.2,1.6,2.2,3.4,2.2,5.4c0,1.6-0.9,2.9-2.2,4.1v3.6c0.9,1,1.6,2.2,1.9,3.7h10.8c2.1,0,3.8-1.9,3.8-4.2
		V12.1C79.7,9.8,78,7.9,75.9,7.9L75.9,7.9z M63.1,78.8v-0.1V78.8L63.1,78.8L63.1,78.8z M63.1,55.9v-0.3h0.3
		C63.3,55.7,63.2,55.8,63.1,55.9L63.1,55.9z M63.1,50.7v-0.3c0.1,0.1,0.1,0.2,0.2,0.3H63.1z M63.1,7.9H43.2l-0.9,4.4
		c1.3,2.1,2.2,4.4,2.6,6.8l3.2,2.5l0,3.8l-3.3,2.3c-0.5,2.2-1.4,4.4-2.6,6.3l0.7,4.9l-2.7,2.7l-4.7-0.8c-2.1,1.3-4.3,2.1-6.6,2.6
		l-2.5,3.3l-3.8,0l-2.4-3.4c-2.3-0.5-4.5-1.4-6.5-2.7l-4.8,0.6l0,0v33.4c0,2.3,1.7,4.2,3.8,4.2h41.9c0.4-2.2,1.8-3.9,3.4-5.3
		c0.3,0.2,0.5,0.4,0.8,0.7c0.2,0.2,0.4,0.3,0.6,0.5c-1.4,1.2-2.5,2.6-2.9,4.2h6.7v-0.1c-0.5-1.6-1.7-2.9-3.1-4.1
		c0,0-0.1-0.1-0.1-0.1c0,0-0.1-0.1-0.1-0.1c-0.2-0.2-0.4-0.3-0.6-0.5c-0.3-0.2-0.5-0.4-0.8-0.7c0,0-0.1-0.1-0.1-0.1
		c0,0-0.1-0.1-0.1-0.1c-1.9-1.6-3.5-3.4-3.5-6.1c0-2.8,1.9-4.9,4-6.7c0,0,0.1-0.1,0.1-0.1c0,0,0.1-0.1,0.1-0.1
		c0.4-0.3,0.8-0.7,1.2-1c0.1-0.1,0.1-0.1,0.2-0.2c0.1,0,0.1-0.1,0.1-0.1c0,0,0.1-0.1,0.1-0.1c1-0.9,2-1.7,2.7-2.6v-0.3h-5.9
		c0.7,1,1.6,1.9,2.6,2.9c-0.1,0.1-0.1,0.1-0.2,0.2c-0.4,0.3-0.8,0.6-1.2,1c-2.1-2.1-4.1-4.1-4.1-6.6c0-2.5,1.9-4.6,4-6.5
		c0.2,0.1,0.3,0.3,0.5,0.4c0.3,0.2,0.6,0.5,0.9,0.7c-1.1,1-2.1,2-2.8,3.1l6.1,0v-0.3c-0.7-0.9-1.7-1.9-2.8-2.8c0,0-0.1-0.1-0.1-0.1
		c0,0-0.1-0.1-0.1-0.1c-0.3-0.3-0.6-0.5-0.9-0.8c-0.2-0.1-0.3-0.3-0.5-0.4c0,0-0.1-0.1-0.1-0.1c-0.1,0-0.1-0.1-0.1-0.1
		c-2.1-1.8-4-3.6-4.4-5.7h1.9c0.5,1.5,2.1,3,3.9,4.5c0,0,0.1,0.1,0.1,0.1c0,0,0.1,0.1,0.1,0.1c0.1,0.1,0.3,0.2,0.4,0.3
		c0.3,0.3,0.7,0.6,1,0.8c0,0,0.1,0.1,0.1,0.1c0,0,0.1,0.1,0.1,0.1c0.5,0.4,1,0.9,1.4,1.3v-3.1c-0.5,0.4-0.9,0.9-1.4,1.3l0,0
		c-0.3-0.3-0.7-0.6-1-0.9c-0.1-0.1-0.2-0.2-0.4-0.3c1.1-1,2.1-1.9,2.8-2.8V7.9L63.1,7.9z M63.1,58.5v3.4c-0.5-0.6-0.9-1.1-1.5-1.7
		c-0.1,0.1-0.2,0.1-0.2,0.2c-0.4,0.3-0.8,0.6-1.1,1c0.9,1,1.8,2,2.4,3.1l-5.6,0c0.6-1.1,1.6-2.1,2.7-3.1c0,0,0.1-0.1,0.1-0.1
		c0,0,0.1-0.1,0.1-0.1c0.4-0.3,0.8-0.6,1.1-1c0.1-0.1,0.2-0.1,0.2-0.2c0.1,0,0.1-0.1,0.1-0.1c0,0,0.1-0.1,0.1-0.1
		C62.2,59.3,62.7,58.9,63.1,58.5L63.1,58.5z M63.1,71.5v3.6c-0.5-0.6-1.1-1.1-1.7-1.7c0,0-0.1-0.1-0.1-0.1c0,0-0.1-0.1-0.1-0.1
		c-0.3-0.2-0.5-0.4-0.8-0.7c-0.2-0.2-0.4-0.3-0.6-0.5c-0.1,0-0.1-0.1-0.2-0.1c-0.1,0-0.1-0.1-0.1-0.1c-0.9-0.8-1.8-1.6-2.3-2.5h5.6
		c-0.6,0.8-1.6,1.6-2.6,2.5c0.2,0.2,0.4,0.3,0.6,0.5c0.3,0.2,0.5,0.4,0.8,0.7C62,72.5,62.6,72,63.1,71.5z"/>
	<path class="st0" d="M125.3,13.6l5.4,15.2h-7.6l-1-2h-12.3v-4.9h10.9l-1.7-4.3c-0.7-0.9-1.7-1.2-3.1-1.1h-6v-4.9h11.3
		C123.3,11.5,124.7,12.2,125.3,13.6L125.3,13.6z M109.8,46.5v-4.9h11h1.1v-4.4c0-1.6-1.2-2.5-3.6-2.5l0,0h-8.6v-4.9h14.9l0,0
		c3,0,4.5,1.3,4.5,4l0,12.6h-4.2H109.8z M109.8,26.7H97.2c-0.5,1.3-1.4,2-2.5,2h-6l6-17.3l7.5,0.1l-3.3,10.3h11V26.7L109.8,26.7z
		 M109.8,16.4v-4.9h-7.2v4.9H109.8L109.8,16.4z M109.8,29.9v4.9H97.7v6.8h12.2v4.9H90.5v-2.5v-2.5v-7.8c0-2.6,1.6-3.9,4.9-3.9H109.8
		z"/>
	<path class="st0" d="M136.6,41.7h18.1v-4.4c0-2.6-1.6-3.9-4.8-3.9h-11.7v-4.8h16.5v-4.1c0-2.2-1.7-3.2-5.2-3.2h-5.3
		c-1.7,2.3-4.3,4.3-7.7,6v-7.7c2.4-2.1,3.8-4.6,4.4-7.4h7.4l-1.7,4.3h8v-5h7.7v5h15.8v4.8h-15.8v7.3h15.1v4.8h-15.1v8.3h16.2v2.1
		c0,1.9-1.3,2.8-3.8,2.8h-38.1V41.7z"/>
	<path class="st0" d="M205.4,13h10.1v-1.6h7.2V13h3.2v4h-3.2v11.4h3.6v4.2h-4.8c1.2,0.7,2.8,1.1,4.5,1.2l0,5.2l-1.6-0.3v1.3H209V42
		h17.4v2.3c0,1.5-1.1,2.3-3.4,2.3h-17.6V34.1h3.6v2h8.3c-2-0.8-3.6-2-4.9-3.5h-6.9v-4.2h10.1v-0.5c0-0.8-0.9-1.2-2.7-1.2l0,0h-7.5
		v-3.4h10.1v-0.4c0-0.7-0.9-1.1-2.7-1.1l0,0h-7.5v-3.4h10.1v-0.4c0-0.7-0.9-1.1-2.8-1.1l0,0h-7.4V13z M184.4,42h17.4v-0.6
		c0-0.8-1.1-1.3-3.4-1.3h-12v-1.3l-1.7,0.3l0-5.3c1.3-0.1,2.7-0.5,4.1-1.2h-4.5v-4.2h3.8v-9.3c0-1.4-0.6-2.1-1.9-2.1h-1.8v-4h3.6
		v-1.6h7.2V13h10v4h-10v1.5h10v3.4h-10v1.5h10v3.4h-10v1.6h10v4.2H199l0,0c-1.3,1.3-3.1,2.5-5.4,3.5l8.2,0v-2h3.6v12.5h-21V42z"/>
	<path class="st0" d="M273,46.4h-20.2v-4.9h12.9V19.9c0-2-1.2-2.9-3.6-2.9h-9.3V12h13.7c4.3,0,6.5,2,6.5,6L273,46.4L273,46.4z
		 M252.8,32l0.6-1.3l3.8,9h7l-4.4-10.9h-5.5l0.8-2.5h9.1v-4.9h-8.1v-3.1h-3.3V32z M252.8,46.4h-20.2v-2.5v-2.4V18c0-4,2.4-6,7.1-6
		h13.1v4.9h-12.9v24.6l0,0h12.9V46.4L252.8,46.4z M252.8,18.4h-4v3.1h-7.1v4.9l0,0h5.7l-5.9,13.3h7.8l3.4-7.7V18.4z"/>
	<path class="st1" d="M129.7,58.6L119,73.7c-0.9,1.2-2.2,2.2-4,3c-2,0.9-4.3,1.3-6.8,1.3l0.5-2.1c1.1,0,2.2-0.2,3.1-0.6
		c0.9-0.4,1.5-0.9,1.6-1.5l-3.1-15.1h5.7l1.3,10.8l6.8-10.8H129.7z"/>
	<path class="st1" d="M181.6,73.7h-5.8v-2.1h6.3L181.6,73.7L181.6,73.7z M175.9,58.6h4.1c1.5,0,2.7,0.4,3.6,1.3
		c0.9,0.8,1.2,1.9,0.9,3l-1.1,4.3h-7.4v-2.1h2.4l0,0l0.6-2.2c0.1-0.6,0-1.1-0.4-1.5c-0.4-0.4-1-0.6-1.8-0.6c-0.3,0-0.5,0-0.8,0.1
		V58.6z M175.9,73.7h-5.3c-1.5,0-2.7-0.4-3.6-1.3c-0.9-0.8-1.2-1.9-0.9-3l1.6-6.5c0.3-1.2,1.1-2.2,2.4-3c1.3-0.8,2.7-1.3,4.2-1.3
		h1.4v2.2c-0.5,0.1-0.9,0.3-1.3,0.6c-0.7,0.4-1.1,0.9-1.2,1.5l-0.5,2.2h3.1v2.1h-3.6l-0.6,2.2c-0.2,0.6,0,1.1,0.4,1.5
		c0.4,0.4,1,0.6,1.8,0.6h2V73.7z"/>
	<path class="st1" d="M202.1,59.9c-0.9-0.8-2.1-1.3-3.6-1.3h-11.1l-3.8,15.1h5.5l3.3-12.9h4.1c0.9,0,1.2,0.7,0.8,2.2l-2.7,10.8h5.5
		l2.7-10.8C203.3,61.7,203,60.7,202.1,59.9z"/>
	<path class="st1" d="M146.6,59.9c-0.9-0.8-2.1-1.3-3.6-1.3H132l-3.8,15.1h5.5l3.3-12.9h4.1c0.9,0,1.2,0.7,0.8,2.2l-2.7,10.8h5.5
		l2.7-10.8C147.8,61.7,147.5,60.7,146.6,59.9z"/>
	<path class="st1" d="M237.4,73.7h-5.8v-2.1h6.3L237.4,73.7L237.4,73.7z M231.6,58.6h4.1c1.5,0,2.7,0.4,3.6,1.3
		c0.9,0.8,1.2,1.9,0.9,3l-1.1,4.3h-7.4v-2.1h2.4l0,0l0.6-2.2c0.2-0.6,0-1.1-0.4-1.5c-0.4-0.4-1-0.6-1.8-0.6c-0.3,0-0.5,0-0.8,0.1
		V58.6z M231.6,73.7h-5.3c-1.5,0-2.7-0.4-3.6-1.3c-0.9-0.8-1.2-1.9-0.9-3l1.6-6.5c0.3-1.2,1.1-2.2,2.4-3c1.3-0.8,2.7-1.3,4.2-1.3
		h1.4v2.2c-0.5,0.1-0.9,0.3-1.3,0.6c-0.7,0.4-1.1,0.9-1.2,1.5l-0.5,2.2h3.1v2.1H228l-0.6,2.2c-0.2,0.6,0,1.1,0.4,1.5
		c0.4,0.4,1,0.6,1.8,0.6h2V73.7z"/>
	<path class="st1" d="M248.8,61.4c0.7-0.4,1.4-0.6,2.1-0.6h5.5l0.5-2.1h-8.3c-1.5,0-2.9,0.4-4.2,1.3c-1.3,0.8-2.1,1.9-2.4,3
		l-1.6,6.5c-0.3,1.2,0,2.2,0.9,3c0.9,0.8,2.1,1.3,3.6,1.3h8.3l0.5-2.1h-5.5c-0.8,0-1.4-0.2-1.8-0.6c-0.4-0.4-0.6-0.9-0.4-1.5
		l1.6-6.5C247.8,62.3,248.2,61.8,248.8,61.4z"/>
	<path class="st1" d="M273.7,59.9c-0.9-0.8-2.1-1.3-3.6-1.3h-5.5l1.1-4.3h-5.5l-4.9,19.4h5.5l3.3-12.9h4.1c0.9,0,1.2,0.7,0.8,2.2
		l-2.7,10.8h5.5l2.7-10.8C274.8,61.7,274.5,60.7,273.7,59.9z"/>
	<path class="st1" d="M105.3,65.3l-4.3-3.4l-1.9,7.4c0,0,0,0.1,0,0.1c0,0.1-0.1,0.2-0.1,0.2l0,0.1h0c-0.5,1.2-1.8,1.9-4.1,1.9h-7.3
		l-0.5,2.1H98c2,0,3.8-0.4,5.4-1.3c1.6-0.8,2.6-1.9,2.9-3l0.3-1.1C106.9,67.2,106.5,66.2,105.3,65.3z"/>
	<path class="st0" d="M99.3,54.3c-2,0-3.8,0.4-5.4,1.3c-1.6,0.9-2.6,1.9-2.9,3.1l-0.3,1.1c-0.3,1.1,0.2,2.1,1.4,3l4.2,3.4l1.9-7.5
		c0.4-1.5,1.8-2.2,4.2-2.2h7.2l0.5-2.1H99.3z"/>
	<path class="st0" d="M227.8,56l0.7-1.6l-5.8-1.4l-0.7,1.5c-0.9-0.1-1.9-0.1-2.9-0.1l0,0l-0.3-1.5l-6.1,1.3l0.3,1.4
		c-0.9,0.3-1.8,0.7-2.7,1.1l-1.1-1.1l-4.8,3.7l1,1c-0.7,0.7-1.3,1.4-1.8,2.2l0.6,0.4c2.4-2.8,6-4.6,10.2-5.4
		c4.7-0.9,7.7-0.5,11.3,1.1l4.1-1.4C229.3,56.8,228.6,56.4,227.8,56z"/>
	<path class="st1" d="M214.6,58.6c-0.9,0.2-1.7,0.4-2.6,0.7l-3.7,14.4h5.5l3.9-15.5C216.9,58.2,215.8,58.4,214.6,58.6z"/>
	<path class="st1" d="M163.4,73.3c-0.4,1.6-1,2.7-1.8,3.4c-1,0.9-2.6,1.4-4.8,1.4h-6.3l0.4-1.6c0.9,0,1.7,0,2.3,0
		c1.9,0,3.2-0.1,3.9-0.4c0.9-0.4,1.5-1.2,1.9-2.5l3.9-13.3c-0.4,0-1.1,0-2.2,0c-0.9,0-1.6,0-2.2,0c-2.2,0-3.6,0.4-4.3,1.1
		c-0.3,0.3-0.7,1.4-1.1,3.1l-1.2,4.6c-0.2,0.9-0.3,1.6-0.1,2c0.2,0.6,0.9,1,2.1,1h3.9l-0.4,1.6h-5.6c-2.2,0-3.6-0.5-4.1-1.4
		c-0.4-0.7-0.4-1.8,0-3.4l1.5-5.6c0.4-1.5,1-2.7,1.8-3.3c1-0.9,2.6-1.4,4.8-1.4h12L163.4,73.3z"/>
</g>
</svg>
